<svg version="1.1" viewBox="0.0 0.0 717.4120734908137 713.4225721784777" fill="none" stroke="none" stroke-linecap="square" stroke-miterlimit="10" xmlns:xlink="http://www.w3.org/1999/xlink" xmlns="http://www.w3.org/2000/svg">
    <clipPath id="p.0">
    <path d="m0 0l717.41205 0l0 713.42255l-717.41205 0l0 -713.42255z" clip-rule="nonzero"/></clipPath><g clip-path="url(#p.0)">
    <path fill="#000000" fill-opacity="0.0" d="m0 0l717.41205 0l0 713.42255l-717.41205 0z" fill-rule="evenodd"/><path fill="#8fafef" d="m1.9973754 360.0l0 0c0 -197.00476 159.7039 -356.70865 356.70865 -356.70865l0 0c94.60504 0 185.3353 37.581696 252.23111 104.477554c66.895874 66.89584 104.47754 157.6261 104.47754 252.23111l0 0c0 197.00476 -159.70386 356.70868 -356.70865 356.70868l0 0c-197.00475 0 -356.70865 -159.70392 -356.70865 -356.70868z" fill-rule="evenodd"/>
    <path stroke="#000000" stroke-width="1.0" stroke-linejoin="round" stroke-linecap="butt" d="m362.56918 110.88199c-48.878113 0 -88.61008 12.515747 -119.19595 37.54724c-30.511795 24.957428 -45.767685 56.54303 -45.767685 94.75679c0 33.77031 12.478729 62.171432 37.436188 85.203354c25.03151 22.957886 64.98567 42.323975 119.86247 58.098236c43.768158 12.663879 73.9837 25.512848 90.6467 38.547028c16.662994 12.960083 24.994507 31.326385 24.994507 55.098907c0 23.772522 -8.998016 42.546143 -26.99405 56.32086c-17.996033 13.774719 -43.879242 20.66211 -77.64957 20.66211c-36.214233 0 -65.17084 -8.479614 -86.86975 -25.438843c-21.624878 -17.033264 -32.4373 -40.213318 -32.4373 -69.54013l-64.31915 0c0 28.215973 7.813095 53.432587 23.43927 75.64987c15.700256 22.217346 37.99164 39.731934 66.87416 52.543945c28.882538 12.737915 59.986786 19.106873 93.312775 19.106873c51.32202 0 92.31299 -11.812195 122.9729 -35.436584c30.659912 -23.698486 45.98987 -55.210022 45.98987 -94.53461c0 -24.661224 -5.517273 -46.10092 -16.55188 -64.31909c-10.960571 -18.2182 -27.845734 -34.140594 -50.655518 -47.767212c-22.735748 -13.700653 -54.284363 -26.2164 -94.64581 -37.54724c-40.287445 -11.330811 -68.8367 -23.80954 -85.6478 -37.436157c-16.73706 -13.700653 -25.10559 -30.437683 -25.10559 -50.21109c0 -24.66121 8.812866 -43.9162 26.43863 -57.764984c17.699799 -13.922852 42.324005 -20.884262 73.87259 -20.884262c33.992523 0 60.32007 8.405533 78.982605 25.216629c18.662567 16.737045 27.993835 39.768967 27.993835 69.095825l64.31918 0c0 -26.88295 -7.1835938 -51.655243 -21.550842 -74.316895c-14.293121 -22.661636 -34.510895 -40.435486 -60.65329 -53.321518c-26.068329 -12.886032 -55.765503 -19.329056 -89.09149 -19.329056z" fill-rule="evenodd"/>
    </g>
</svg>